<svg width="24" height="22" viewBox="0 0 24 22" fill="none" xmlns="http://www.w3.org/2000/svg">
<path d="M23.5129 16.8582L15.0255 1.67386C14.3849 0.625888 13.2535 0 11.9991 0C10.7447 0 9.61335 0.625888 8.97276 1.67386C8.96793 1.68188 8.96385 1.6899 8.95902 1.69791L0.499755 16.8341C-0.154574 17.9042 -0.166949 19.1893 0.466052 20.2714C1.10051 21.3541 2.24351 22 3.5254 22H20.4259C21.7078 22 22.8978 21.3541 23.5322 20.2714C24.1652 19.1893 24.1529 17.9042 23.5129 16.8582ZM10.5914 6.95259C10.5914 6.19706 11.2217 5.58466 11.9991 5.58466C12.7766 5.58466 13.4068 6.19711 13.4068 6.95259V12.4244C13.4068 13.1798 12.7765 13.7923 11.9991 13.7923C11.2217 13.7923 10.5914 13.1798 10.5914 12.4244V6.95259ZM11.9991 19.2641C10.8348 19.2641 9.88757 18.3437 9.88757 17.2122C9.88757 16.0807 10.8347 15.1603 11.9991 15.1603C13.1634 15.1603 14.1106 16.0807 14.1106 17.2122C14.1106 18.3437 13.1635 19.2641 11.9991 19.2641Z" fill="#3F53BB"/>
</svg>
