<svg width="16" height="16" viewBox="0 0 16 16" fill="none" xmlns="http://www.w3.org/2000/svg">
<path d="M15.6753 11.9054L10.017 1.78256C9.58991 1.08391 8.83566 0.666656 7.9994 0.666656C7.16315 0.666656 6.4089 1.08391 5.98184 1.78256C5.97862 1.78791 5.9759 1.79325 5.97268 1.7986L0.33317 11.8894C-0.103049 12.6028 -0.111299 13.4595 0.310701 14.1809C0.733671 14.9027 1.49567 15.3333 2.35027 15.3333H13.6173C14.4719 15.3333 15.2652 14.9027 15.6881 14.1809C16.1101 13.4595 16.1019 12.6028 15.6753 11.9054ZM7.06097 5.30172C7.06097 4.79803 7.48112 4.38976 7.9994 4.38976C8.51772 4.38976 8.93784 4.79806 8.93784 5.30172V8.94957C8.93784 9.4532 8.51769 9.86153 7.9994 9.86153C7.48112 9.86153 7.06097 9.45317 7.06097 8.94957V5.30172ZM7.9994 13.5094C7.22318 13.5094 6.59171 12.8958 6.59171 12.1414C6.59171 11.3871 7.22315 10.7735 7.9994 10.7735C8.77563 10.7735 9.40706 11.3871 9.40706 12.1414C9.40709 12.8958 8.77566 13.5094 7.9994 13.5094Z" fill="#3F53BB"/>
</svg>
