<svg width="40" height="40" viewBox="0 0 40 40" fill="none" xmlns="http://www.w3.org/2000/svg">
<path d="M26 9H14C12.6744 9.00159 11.4036 9.52888 10.4662 10.4662C9.52888 11.4036 9.00159 12.6744 9 14V22C9.00145 23.1522 9.40009 24.2687 10.1287 25.1613C10.8573 26.0538 11.8714 26.6679 13 26.9V30C13 30.181 13.0491 30.3587 13.1421 30.514C13.2352 30.6693 13.3686 30.7965 13.5282 30.8819C13.6879 30.9673 13.8677 31.0078 14.0485 30.999C14.2293 30.9902 14.4044 30.9325 14.555 30.832L20.3 27H26C27.3256 26.9984 28.5964 26.4711 29.5338 25.5338C30.4711 24.5964 30.9984 23.3256 31 22V14C30.9984 12.6744 30.4711 11.4036 29.5338 10.4662C28.5964 9.52888 27.3256 9.00159 26 9ZM24 21H16C15.7348 21 15.4804 20.8946 15.2929 20.7071C15.1054 20.5196 15 20.2652 15 20C15 19.7348 15.1054 19.4804 15.2929 19.2929C15.4804 19.1054 15.7348 19 16 19H24C24.2652 19 24.5196 19.1054 24.7071 19.2929C24.8946 19.4804 25 19.7348 25 20C25 20.2652 24.8946 20.5196 24.7071 20.7071C24.5196 20.8946 24.2652 21 24 21ZM26 17H14C13.7348 17 13.4804 16.8946 13.2929 16.7071C13.1054 16.5196 13 16.2652 13 16C13 15.7348 13.1054 15.4804 13.2929 15.2929C13.4804 15.1054 13.7348 15 14 15H26C26.2652 15 26.5196 15.1054 26.7071 15.2929C26.8946 15.4804 27 15.7348 27 16C27 16.2652 26.8946 16.5196 26.7071 16.7071C26.5196 16.8946 26.2652 17 26 17Z" fill="#7389FF"/>
</svg>
