<svg width="10" height="16" viewBox="0 0 10 16" fill="none" xmlns="http://www.w3.org/2000/svg">
<path fill-rule="evenodd" clip-rule="evenodd" d="M0.788389 4.0403C0.774959 6.25658 2.66354 8.09097 4.96671 8.09851C7.29325 8.10621 9.19491 6.31355 9.20677 4.10179C9.21846 1.83776 7.34784 0.00604844 5.01729 1.59185e-05C2.69145 -0.00618417 0.801645 1.79955 0.788389 4.0403ZM5.00055 2.06816C6.14367 2.06917 7.05587 2.94523 7.05988 4.04566C7.06372 5.14592 6.15396 6.02768 5.01119 6.03153C3.86492 6.03555 2.94487 5.1657 2.93633 4.06945C2.92743 2.95897 3.84783 2.06699 5.00055 2.06816Z" fill="white"/>
<path d="M0.728543 10.0861C1.72516 10.8349 2.88921 11.1404 4.18025 11.2698C4.14517 11.3058 4.11494 11.3375 4.08746 11.3663C4.04347 11.4124 4.00652 11.4511 3.96798 11.4884C3.78405 11.6656 3.60013 11.8428 3.41621 12.02C2.65342 12.7549 1.89049 13.49 1.12586 14.2235C0.929645 14.4117 0.789066 14.6215 0.775112 14.8961C0.75488 15.3022 1.01703 15.7062 1.429 15.8981C1.81655 16.0789 2.21422 16.0219 2.54841 15.7053C3.29264 15.0004 4.03251 14.2914 4.76053 13.5713C4.94262 13.3914 5.04186 13.3522 5.2482 13.5594C5.72486 14.0387 6.21429 14.5061 6.70377 14.9736C6.94237 15.2015 7.18097 15.4293 7.41811 15.6586C7.60701 15.8414 7.81962 15.9718 8.09223 15.9899C8.52252 16.0182 8.96135 15.7536 9.1574 15.3514C9.3367 14.9835 9.26867 14.5912 8.94304 14.2748C8.33546 13.6846 7.72493 13.0971 7.11439 12.5095C6.76446 12.1728 6.41454 11.8361 6.06516 11.4988C6.01548 11.4508 5.9749 11.4082 5.91328 11.3433C5.89228 11.3213 5.86883 11.2966 5.84174 11.2683C6.54795 11.1872 7.26149 11.065 7.91293 10.8224C8.60188 10.5656 9.22193 10.1978 9.7375 9.68942C10.0736 9.3578 10.0771 8.94088 9.80431 8.51375C9.56553 8.13973 9.15059 7.98272 8.70566 8.09247C8.47682 8.14911 8.27938 8.26004 8.09468 8.39611C6.23034 9.60094 3.6788 9.56709 1.82144 8.34098C1.73039 8.28032 1.63533 8.22385 1.53557 8.17861C1.02034 7.94518 0.52465 8.05393 0.229363 8.46046C-0.115807 8.93552 -0.071854 9.3965 0.364362 9.79901C0.454589 9.88221 0.554294 9.95631 0.653849 10.0303C0.678807 10.0488 0.703756 10.0674 0.728543 10.0861Z" fill="white"/>
</svg>
