<svg width="24" height="24" viewBox="0 0 24 24" fill="none" xmlns="http://www.w3.org/2000/svg">
<path d="M12.0007 11.942C15.0915 11.942 17.5972 9.43638 17.5972 6.34552C17.5972 3.25466 15.0915 0.749023 12.0007 0.749023C8.90981 0.749023 6.40417 3.25466 6.40417 6.34552C6.40417 9.43638 8.90981 11.942 12.0007 11.942Z" fill="#7389FF"/>
<path d="M14.4231 12.8653H9.57812C7.98744 12.8672 6.46246 13.5 5.33768 14.6248C4.21289 15.7496 3.58011 17.2746 3.57812 18.8653V20.9998C3.57872 21.5963 3.81596 22.1683 4.23779 22.5901C4.65962 23.0119 5.23157 23.2492 5.82812 23.2498H18.1731C18.7697 23.2492 19.3416 23.0119 19.7635 22.5901C20.1853 22.1683 20.4225 21.5963 20.4231 20.9998V18.8653C20.4211 17.2746 19.7884 15.7496 18.6636 14.6248C17.5388 13.5 16.0138 12.8672 14.4231 12.8653Z" fill="#7389FF"/>
</svg>
