<svg width="24" height="24" viewBox="0 0 24 24" fill="none" xmlns="http://www.w3.org/2000/svg">
<g clip-path="url(#clip0_175_1960)">
<path d="M20.924 16.7044C19.4331 15.4643 17.9202 14.7132 16.4477 15.9513L15.5684 16.6997C14.9251 17.2429 13.7289 19.7811 9.10433 14.6073C4.48068 9.44011 7.23214 8.63557 7.87643 8.09702L8.76052 7.34775C10.2253 6.10675 9.67253 4.54451 8.61606 2.93637L7.97851 1.96231C6.91722 0.357917 5.76155 -0.695756 4.29288 0.543363L3.49932 1.21771C2.85022 1.67758 1.03582 3.17239 0.595697 6.01216C0.0660139 9.4195 1.73692 13.3214 5.56509 17.6026C9.38843 21.8856 13.1318 24.037 16.6778 23.9995C19.6248 23.9686 21.4045 22.4307 21.9612 21.8716L22.7576 21.1963C24.2224 19.9581 23.3123 18.6974 21.8206 17.4546L20.924 16.7044Z" fill="#7389FF"/>
</g>
<defs>
<clipPath id="clip0_175_1960">
<rect width="24" height="24" fill="#7389FF"/>
</clipPath>
</defs>
</svg>
