<svg width="24" height="24" viewBox="0 0 24 24" fill="none" xmlns="http://www.w3.org/2000/svg">
<path d="M21.6724 5.90323L20.97 8.69682C20.9452 8.7962 20.9015 8.88955 20.8417 8.97152C20.7818 9.05349 20.7068 9.12247 20.621 9.1745C20.5352 9.22654 20.4403 9.26061 20.3417 9.27476C20.2432 9.28891 20.1429 9.28287 20.0466 9.25698L17.2573 8.51116C17.1605 8.48591 17.0694 8.44117 16.9894 8.3795C16.9095 8.31784 16.8421 8.24048 16.7912 8.15187C16.7403 8.06325 16.7069 7.96514 16.6929 7.86316C16.6789 7.76119 16.6846 7.65737 16.7097 7.55767C16.7348 7.45798 16.7787 7.36438 16.839 7.28226C16.8992 7.20014 16.9747 7.13112 17.0609 7.07917C17.1471 7.02722 17.2425 6.99337 17.3414 6.97956C17.4404 6.96575 17.541 6.97225 17.6375 6.9987L18.6119 7.2592C16.5992 4.27124 12.8599 2.95506 9.4588 4.12151C8.28071 4.52104 7.20887 5.19763 6.32795 6.09782C5.44704 6.99802 4.7812 8.09714 4.38304 9.30835C4.35071 9.40538 4.30016 9.49489 4.23428 9.57177C4.1684 9.64865 4.08849 9.7114 3.99909 9.75644C3.9097 9.80147 3.81258 9.8279 3.71328 9.83423C3.61398 9.84056 3.51444 9.82665 3.42035 9.79331C3.32626 9.75996 3.23946 9.70783 3.16491 9.6399C3.09036 9.57196 3.02951 9.48955 2.98584 9.39736C2.94217 9.30517 2.91654 9.20502 2.9104 9.10261C2.90427 9.00021 2.91775 8.89756 2.95009 8.80053C3.42163 7.38998 4.19459 6.10678 5.21183 5.04581C6.26571 3.94718 7.55743 3.12226 8.98077 2.63889C10.969 1.95719 13.1193 1.96728 15.1014 2.66761C17.0836 3.36794 18.7881 4.7198 19.9532 6.51565L20.2058 5.51128C20.2562 5.31071 20.3818 5.13901 20.555 5.03395C20.7282 4.9289 20.9347 4.8991 21.1292 4.9511C21.3237 5.0031 21.4902 5.13265 21.5921 5.31125C21.694 5.48984 21.7229 5.70285 21.6724 5.90342V5.90323ZM20.5793 14.2067C20.4852 14.1733 20.3856 14.1594 20.2863 14.1658C20.187 14.1721 20.0899 14.1986 20.0005 14.2436C19.9111 14.2886 19.8312 14.3514 19.7654 14.4283C19.6995 14.5052 19.649 14.5947 19.6166 14.6917C19.2185 15.9029 18.5526 17.002 17.6717 17.9022C16.7908 18.8024 15.719 19.479 14.5409 19.8785C11.1399 21.045 7.40047 19.7288 5.38793 16.7408L6.36225 17.0014C6.45901 17.0286 6.56005 17.0357 6.6595 17.0223C6.75896 17.0089 6.85484 16.9753 6.9416 16.9234C7.02836 16.8715 7.10427 16.8024 7.16491 16.72C7.22555 16.6376 7.26973 16.5436 7.29488 16.4435C7.32003 16.3434 7.32565 16.2391 7.31141 16.1367C7.29717 16.0343 7.26337 15.9359 7.21195 15.8471C7.16053 15.7583 7.09252 15.6809 7.01187 15.6194C6.93122 15.5579 6.83954 15.5136 6.74213 15.4889L3.95274 14.7431C3.75825 14.6911 3.5517 14.7209 3.37852 14.8259C3.20534 14.931 3.07972 15.1027 3.02929 15.3032L2.32698 18.0968C2.30201 18.1961 2.29626 18.2995 2.31004 18.4012C2.32383 18.5028 2.35689 18.6006 2.40733 18.689C2.45777 18.7774 2.5246 18.8548 2.60402 18.9165C2.68344 18.9783 2.77388 19.0234 2.87018 19.0491C2.96648 19.0749 3.06676 19.0808 3.16529 19.0666C3.26382 19.0524 3.35866 19.0183 3.44442 18.9663C3.53017 18.9143 3.60514 18.8453 3.66507 18.7635C3.72499 18.6816 3.76868 18.5883 3.79365 18.489L4.04619 17.4846C5.21181 19.2799 6.91634 20.6313 8.89834 21.3315C10.8803 22.0318 13.0304 22.0422 15.0186 21.3612C16.442 20.8778 17.7337 20.0529 18.7876 18.9542C19.8048 17.8932 20.5778 16.61 21.0493 15.1994C21.1146 15.0034 21.1018 14.7888 21.0136 14.6026C20.9255 14.4165 20.7692 14.274 20.5793 14.2067Z" fill="#5D70D6"/>
</svg>
