<svg width="154" height="18" viewBox="0 0 154 18" fill="none" xmlns="http://www.w3.org/2000/svg">
<g clip-path="url(#clip0_175_1773)">
<path fill-rule="evenodd" clip-rule="evenodd" d="M101.238 8.74385C101.238 5.34452 98.984 3.31442 95.6037 3.29929C92.18 3.29929 89.9701 5.53827 89.9701 8.71363C89.9701 12.1281 92.2234 14.1589 95.6037 14.1589C99.0286 14.1589 101.238 11.9171 101.238 8.74385ZM99.2557 8.72874C99.2557 10.9395 97.8571 12.429 95.6191 12.429V12.4269C93.2151 12.4118 91.9528 10.7877 91.9528 8.72874C91.9528 6.53302 93.3366 5.04362 95.59 5.02849C97.994 5.04362 99.2557 6.66769 99.2557 8.72874Z" fill="#FF0D65"/>
<path fill-rule="evenodd" clip-rule="evenodd" d="M124.028 8.74385C124.028 5.34452 121.774 3.31442 118.394 3.29929C114.969 3.29929 112.761 5.53827 112.76 8.71363C112.76 12.1281 115.014 14.1589 118.394 14.1589C121.819 14.1589 124.028 11.9171 124.028 8.74385ZM122.046 8.72874C122.046 10.9395 120.647 12.429 118.409 12.429L118.409 12.4269C116.006 12.4118 114.744 10.7877 114.743 8.72874C114.743 6.53302 116.126 5.04362 118.38 5.02849C120.784 5.04362 122.046 6.66769 122.046 8.72874Z" fill="#FF0D65"/>
<path fill-rule="evenodd" clip-rule="evenodd" d="M125.997 13.9912V3.4628H130.563C132.908 3.4628 134.109 4.33461 134.109 6.07964C134.109 7.28258 133.629 8.0802 132.547 8.50135C133.839 8.72668 134.425 9.55386 134.425 10.9223C134.425 13.1036 132.862 13.9912 130.308 13.9912H125.997ZM130.293 7.9146C131.48 7.9146 132.231 7.3884 132.231 6.48562C132.231 5.64338 131.675 5.192 130.338 5.192H127.875V7.9146H130.293ZM130.43 12.2613C131.871 12.2613 132.534 11.7949 132.534 10.787C132.534 9.77918 131.783 9.38826 130.461 9.38826H127.877V12.2613H130.43Z" fill="#FF0D65"/>
<path fill-rule="evenodd" clip-rule="evenodd" d="M139.863 6.74122H138.436V3.4628H136.558V13.9912H139.881C142.945 13.9912 144.598 12.7574 144.598 10.3061C144.598 7.92977 143.198 6.74122 139.863 6.74122ZM138.436 12.2613V8.47108H140.028C141.861 8.47108 142.657 8.96717 142.657 10.2608C142.657 11.6897 141.756 12.2613 139.998 12.2613H138.436Z" fill="#FF0D65"/>
<path d="M148.442 9.43364H153.28L153.282 7.70373H148.444V5.192H153.837V3.4628H146.563V13.9912H154V12.2613H148.442V9.43364Z" fill="#FF0D65"/>
<path fill-rule="evenodd" clip-rule="evenodd" d="M105.081 10.7121V13.9912H103.203V3.4628H106.703C110.023 3.4628 111.438 4.65064 111.438 7.02698C111.438 9.47897 109.786 10.7121 106.703 10.7121H105.081ZM105.081 5.192V8.98222H106.839C108.582 8.98222 109.482 8.41064 109.482 6.98237C109.482 5.68871 108.702 5.192 106.869 5.192H105.081Z" fill="#FF0D65"/>
<path fill-rule="evenodd" clip-rule="evenodd" d="M79.3182 12.2613C79.9188 10.8323 80.3545 8.84689 80.4001 5.64338L80.4298 3.4628H87.8212V12.2613H89.0378V15.9465H87.2806V13.9912H79.9337V15.9465H78.1765V12.2613H79.3182ZM81.1514 12.2613H85.943V5.192H82.143V5.68871C82.0825 8.44086 81.7498 10.607 81.1514 12.2613Z" fill="#FF0D65"/>
<path d="M72.7678 3.31241C71.1002 3.31241 69.8836 3.80844 69.2824 4.24467L69.2808 6.86155C69.8973 5.9292 71.1744 5.01209 72.7661 5.04161C73.8782 5.07184 74.7494 5.46273 74.7494 6.44034C74.7494 7.22285 74.2836 7.86938 72.9317 7.86938H71.3532V9.41858H72.946C74.5833 9.41858 75.2747 9.85484 75.2747 10.7871C75.2747 11.8554 74.2533 12.3968 72.9762 12.4119C71.0375 12.427 69.6707 11.5847 69.025 10.5164V12.833C69.5838 13.4644 71.0375 14.1569 72.946 14.1418C75.7708 14.1267 77.2277 12.7279 77.2277 10.908C77.2277 9.52369 76.4484 8.6814 74.8259 8.44096C76.043 8.00471 76.6887 7.19264 76.6887 5.95947C76.6887 4.10935 75.1262 3.32754 72.7678 3.31241Z" fill="#FF0D65"/>
<path d="M28.5188 12.1081C29.2016 12.1119 29.8743 11.944 30.4745 11.6199L30.9766 11.3493L32.4425 12.4244C31.4753 13.4553 30.0498 14.0219 28.4168 14.0219C26.8556 14.0219 25.4287 13.4703 24.4081 12.4769C23.3874 11.4836 22.825 10.103 22.825 8.60296C22.825 7.10302 23.3956 5.74282 24.4142 4.78493C25.4328 3.82702 26.859 3.29929 28.4311 3.29929C29.8806 3.29929 31.1479 3.7377 32.0966 4.56744L32.2042 4.65812L30.5793 5.84989C29.9789 5.42255 29.2568 5.19773 28.5188 5.20832C26.4768 5.20832 24.9944 6.65918 24.9944 8.65822C24.9944 10.6573 26.4768 12.1081 28.5188 12.1081Z" fill="#21A038"/>
<path fill-rule="evenodd" clip-rule="evenodd" d="M39.3844 7.50655H36.6279V5.17344H41.0277L43.3992 3.43419H34.3625V13.8827H39.0891C41.7422 13.8827 43.2635 12.6862 43.2635 10.6005C43.2663 8.60564 41.8874 7.50655 39.3844 7.50655ZM38.9898 12.1427H36.6279V9.24649H38.9898C40.4283 9.24649 41.0969 9.73124 41.0969 10.6947C41.0969 11.6792 40.3852 12.1427 38.9898 12.1427Z" fill="#21A038"/>
<path d="M53.3126 3.43419L50.9412 5.17344H47.6408V7.72817H52.479V9.46811H47.6408V12.1427H53.3126V13.8827H45.3754V3.43419H53.3126Z" fill="#21A038"/>
<path fill-rule="evenodd" clip-rule="evenodd" d="M55.4219 3.43419H59.7438C62.5009 3.43419 64.2125 4.86663 64.2125 7.17317C64.2125 9.47967 62.4993 10.923 59.7421 10.923H57.6873V13.8827H55.4219V3.43419ZM57.6873 9.18306H59.6948C61.1463 9.18306 61.9449 8.47129 61.9449 7.17862C61.9449 5.88595 61.1463 5.17344 59.6948 5.17344H57.6873V9.18306Z" fill="#21A038"/>
<path d="M15.6588 3.39178C16.0714 3.9244 16.4242 4.50638 16.7063 5.12674L8.74181 10.989L5.41406 8.9058V6.39971L8.74181 8.48285L15.6588 3.39178Z" fill="#21A038"/>
<path d="M2.01944 8.72896C2.01944 8.61655 2.02219 8.50484 2.02768 8.39378L0.010983 8.29304C0.00411876 8.43764 0 8.583 0 8.72896C0 11.1392 0.978148 13.3217 2.56034 14.9018L3.99015 13.4739C2.77381 12.2578 2.01944 10.5798 2.01944 8.72896Z" fill="url(#paint0_linear_175_1773)"/>
<path d="M8.74162 2.01601C8.8542 2.01601 8.96607 2.02012 9.07728 2.02561L9.17821 0.010968C9.03334 0.00411316 8.88781 0 8.74162 0C6.32816 0 4.14262 0.976816 2.56042 2.55686L3.99024 3.98472C5.20794 2.76867 6.88828 2.01601 8.74162 2.01601Z" fill="url(#paint1_linear_175_1773)"/>
<path d="M8.7414 15.4419C8.62881 15.4419 8.51694 15.4392 8.40573 15.4337L8.30481 17.4477C8.44962 17.4545 8.59515 17.4586 8.7414 17.4586C11.1548 17.4586 13.3404 16.4818 14.9226 14.9018L13.4927 13.4739C12.275 14.6886 10.5947 15.4419 8.7414 15.4419Z" fill="url(#paint2_linear_175_1773)"/>
<path d="M12.5311 3.1875L14.2314 1.93649C12.7309 0.725242 10.8213 0 8.74146 0V2.0167C10.1465 2.01601 11.4514 2.44924 12.5311 3.1875Z" fill="url(#paint3_linear_175_1773)"/>
<path d="M17.4826 8.72897C17.4826 8.19497 17.4345 7.67264 17.3425 7.16471L15.461 8.54935C15.4624 8.60902 15.4638 8.66864 15.4638 8.72826C15.4638 10.699 14.6085 12.4744 13.2494 13.7035L14.6065 15.2013C16.3726 13.6048 17.4826 11.2961 17.4826 8.72897Z" fill="#21A038"/>
<path d="M8.7415 15.4419C6.76805 15.4419 4.99022 14.5878 3.75947 13.2305L2.25964 14.5857C3.859 16.3502 6.17086 17.4586 8.7415 17.4586V15.4419Z" fill="url(#paint4_linear_175_1773)"/>
<path d="M4.23383 3.75371L2.87678 2.25592C1.10994 3.8531 0 6.16183 0 8.72896H2.01944C2.02013 6.75752 2.87472 4.98278 4.23383 3.75371Z" fill="url(#paint5_linear_175_1773)"/>
</g>
<defs>
<linearGradient id="paint0_linear_175_1773" x1="2.96935" y1="14.6489" x2="0.768326" y2="8.27809" gradientUnits="userSpaceOnUse">
<stop offset="0.1444" stop-color="#F2E913"/>
<stop offset="0.3037" stop-color="#E7E518"/>
<stop offset="0.5823" stop-color="#CADB26"/>
<stop offset="0.891" stop-color="#A3CD39"/>
</linearGradient>
<linearGradient id="paint1_linear_175_1773" x1="3.13757" y1="2.91335" x2="8.81831" y2="0.745596" gradientUnits="userSpaceOnUse">
<stop offset="0.0592" stop-color="#0FA8E0"/>
<stop offset="0.5385" stop-color="#0099F9"/>
<stop offset="0.9234" stop-color="#0291EB"/>
</linearGradient>
<linearGradient id="paint2_linear_175_1773" x1="8.17154" y1="16.2415" x2="14.5969" y2="14.7873" gradientUnits="userSpaceOnUse">
<stop offset="0.1226" stop-color="#A3CD39"/>
<stop offset="0.2846" stop-color="#86C339"/>
<stop offset="0.8693" stop-color="#21A038"/>
</linearGradient>
<linearGradient id="paint3_linear_175_1773" x1="8.31895" y1="0.675469" x2="13.8119" y2="2.37259" gradientUnits="userSpaceOnUse">
<stop offset="0.0566" stop-color="#0291EB"/>
<stop offset="0.79" stop-color="#0C8ACB"/>
</linearGradient>
<linearGradient id="paint4_linear_175_1773" x1="2.76617" y1="14.3399" x2="8.74469" y2="16.5768" gradientUnits="userSpaceOnUse">
<stop offset="0.1324" stop-color="#F2E913"/>
<stop offset="0.2977" stop-color="#EBE716"/>
<stop offset="0.5306" stop-color="#D9E01F"/>
<stop offset="0.8023" stop-color="#BBD62D"/>
<stop offset="0.9829" stop-color="#A3CD39"/>
</linearGradient>
<linearGradient id="paint5_linear_175_1773" x1="0.752631" y1="8.97321" x2="3.14755" y2="2.73465" gradientUnits="userSpaceOnUse">
<stop offset="0.0698" stop-color="#A3CD39"/>
<stop offset="0.2599" stop-color="#81C55F"/>
<stop offset="0.9216" stop-color="#0FA8E0"/>
</linearGradient>
<clipPath id="clip0_175_1773">
<rect width="154" height="18" fill="white"/>
</clipPath>
</defs>
</svg>
