<svg width="22" height="21" viewBox="0 0 22 21" fill="none" xmlns="http://www.w3.org/2000/svg">
<path d="M9.76398 0.797677C10.36 -0.0691904 11.64 -0.0691902 12.236 0.797677L14.9383 4.72794C15.1329 5.01096 15.4188 5.21863 15.7481 5.31624L20.321 6.67178C21.3297 6.97076 21.7252 8.1881 21.0849 9.02284L18.1821 12.8074C17.9731 13.0799 17.8639 13.416 17.8728 13.7593L17.9967 18.5273C18.0241 19.579 16.9885 20.3313 15.9968 19.9804L11.5004 18.3891C11.1767 18.2745 10.8233 18.2745 10.4996 18.3891L6.00319 19.9804C5.01146 20.3313 3.97593 19.579 4.00326 18.5273L4.12719 13.7593C4.13611 13.416 4.02694 13.0799 3.8179 12.8074L0.915062 9.02284C0.274806 8.1881 0.670344 6.97076 1.67897 6.67178L6.25193 5.31624C6.58123 5.21863 6.86706 5.01096 7.06165 4.72794L9.76398 0.797677Z" fill="#FA8989" fill-opacity="0.3"/>
</svg>
