<svg width="18" height="12" viewBox="0 0 18 12" fill="none" xmlns="http://www.w3.org/2000/svg">
<path d="M10.9284 6C10.9284 7.10457 10.065 8 8.99998 8C7.93496 8 7.07158 7.10457 7.07158 6C7.07158 4.89543 7.93496 4 8.99998 4C10.065 4 10.9284 4.89543 10.9284 6Z" fill="#5D70D6"/>
<path fill-rule="evenodd" clip-rule="evenodd" d="M9 0C14.5827 0 17.8192 5.59333 17.9542 5.83C18.0153 5.93667 18.0153 6.06333 17.9542 6.17C17.8192 6.40667 14.5827 12 9 12C3.41728 12 0.180787 6.40667 0.0457995 6.17C-0.0152665 6.06333 -0.0152665 5.93667 0.0457995 5.83C0.180787 5.59333 3.41728 0 9 0ZM4.8218 6C4.8218 8.39 6.69556 10.3333 9 10.3333C11.3044 10.3333 13.1782 8.39 13.1782 6C13.1782 3.61 11.3044 1.66667 9 1.66667C6.69556 1.66667 4.8218 3.61 4.8218 6Z" fill="#5D70D6"/>
</svg>
