<svg width="18" height="10" viewBox="0 0 18 10" fill="none" xmlns="http://www.w3.org/2000/svg">
<path fill-rule="evenodd" clip-rule="evenodd" d="M8.79381 9.98855H9.87152C9.87152 9.98855 10.1858 9.94455 10.3655 9.76854C10.5226 9.61453 10.5226 9.30652 10.5226 9.30652C10.5226 9.30652 10.5002 7.89844 11.1737 7.67842C11.8249 7.48041 12.6781 9.0425 13.5761 9.63653C14.2497 10.0986 14.7661 9.98855 14.7661 9.98855L17.1685 9.96655C17.1685 9.96655 18.4258 9.90055 17.8196 8.9325C17.7747 8.84449 17.4828 8.20645 16.0459 6.90838C14.5416 5.54431 14.7437 5.76432 16.5623 3.38819C17.6625 1.95811 18.1115 1.07806 17.9768 0.682037C17.8421 0.330018 17.0338 0.418023 17.0338 0.418023L14.3395 0.440024C14.3395 0.440024 14.1374 0.418023 13.9803 0.506028C13.8007 0.616034 13.7109 0.814045 13.7109 0.814045C13.7109 0.814045 13.2843 1.93611 12.723 2.88216C11.5105 4.88427 11.039 4.99428 10.837 4.86227C10.3879 4.57625 10.5002 3.6962 10.5002 3.08017C10.5002 1.14406 10.7921 0.330018 9.91642 0.132007C9.62454 0.0660033 9.40002 0.0220012 8.65909 0C7.69365 0 6.88536 0 6.41387 0.220012C6.09953 0.374021 5.87501 0.704039 6.00973 0.704039C6.18934 0.72604 6.59348 0.814045 6.79555 1.10006C7.06498 1.47408 7.06498 2.28813 7.06498 2.28813C7.06498 2.28813 7.22215 4.57625 6.68329 4.86227C6.32406 5.06028 5.83011 4.66426 4.7524 2.83816C4.21354 1.91411 3.78695 0.880049 3.78695 0.880049C3.78695 0.880049 3.69714 0.682038 3.56243 0.594033C3.45017 0.506028 3.22564 0.440024 2.97867 0.440024L0.576275 0.462025C0.576275 0.462025 0.194586 0.462025 0.0598727 0.638035C-0.0748409 0.792044 0.0598727 1.07806 0.0598727 1.07806C0.0598727 1.07806 2.08058 5.67631 4.34826 7.98644C6.43632 10.1426 8.79381 9.98855 8.79381 9.98855Z" fill="white"/>
</svg>
